<?xml version="1.0" standalone="no"?>
<!DOCTYPE svg PUBLIC "-//W3C//DTD SVG 20010904//EN"
 "http://www.w3.org/TR/2001/REC-SVG-20010904/DTD/svg10.dtd">
<svg version="1.0" xmlns="http://www.w3.org/2000/svg"
 width="1650.000000pt" height="1372.000000pt" viewBox="0 0 1650.000000 1372.000000"
 preserveAspectRatio="xMidYMid meet">

<g transform="translate(0.000000,1372.000000) scale(0.100000,-0.100000)"
fill="#3fc337" stroke="none">
<path d="M7402 9873 l3 -1658 933 -3 932 -2 0 -290 0 -290 -1124 0 -1123 0 -5
84 c-7 138 -64 229 -143 230 l-33 1 18 46 c17 43 37 156 43 243 l2 38 75 22
c152 45 261 120 315 217 26 47 30 64 29 129 -3 208 -188 434 -460 562 -243
113 -557 183 -884 195 -560 20 -973 -160 -1072 -470 -27 -82 -35 -326 -19
-549 13 -168 57 -624 66 -668 2 -14 9 -90 15 -169 6 -79 18 -165 27 -190 32
-95 -8 -247 -107 -408 l-50 -82 -38 7 c-20 4 -75 7 -121 7 l-85 0 -114 -190
-115 -190 -135 -95 c-433 -304 -654 -477 -730 -573 -180 -227 -254 -503 -282
-1057 -6 -113 -15 -261 -20 -330 -30 -357 -129 -1378 -136 -1400 -5 -14 -181
311 -389 721 -84 165 -114 215 -148 244 -23 20 -54 48 -70 62 l-27 25 2 261 3
262 -34 115 c-142 487 -515 1520 -638 1764 -82 163 -192 252 -344 281 -41 8
-101 24 -133 35 -106 38 -266 53 -516 47 -248 -5 -348 -19 -500 -68 -227 -73
-241 -105 -200 -436 94 -762 299 -1693 485 -2209 61 -166 35 -108 685 -1599
735 -1687 980 -2255 980 -2271 0 -2 -184 -4 -410 -4 -403 0 -410 0 -410 -20 0
-20 5 -20 7528 -18 6683 3 7527 5 7527 18 0 13 -64 15 -507 18 l-508 2 0 745
0 745 -261 0 -261 0 7 78 c4 42 11 104 16 136 4 33 6 69 3 81 -5 20 4 25 88
54 273 95 613 295 804 474 36 33 68 56 74 52 15 -9 -21 -48 -132 -140 -164
-138 -381 -267 -615 -366 -116 -49 -117 -50 -63 -44 197 21 504 104 622 167
100 53 229 195 335 368 64 106 135 239 131 249 -4 12 -260 -59 -418 -115 -160
-58 -366 -159 -452 -223 -67 -50 -120 -112 -271 -314 -44 -59 -82 -106 -84
-104 -9 9 83 341 147 530 91 270 141 513 110 532 -20 12 -9 24 57 61 115 64
324 209 413 286 47 40 107 103 134 140 30 38 55 64 63 61 22 -9 -15 -60 -117
-163 -103 -103 -200 -177 -368 -282 -150 -94 -145 -89 -87 -82 147 19 352 104
460 191 162 131 267 340 294 586 20 175 18 177 -85 101 -375 -275 -553 -462
-697 -732 l-44 -83 -6 173 c-3 95 -13 222 -22 282 l-17 109 34 26 c173 135
442 401 550 546 169 225 194 330 185 769 -5 240 -31 562 -47 579 -4 4 -13 -7
-20 -25 -24 -59 -151 -311 -188 -372 -20 -33 -80 -115 -134 -183 -344 -432
-420 -579 -450 -877 l-12 -124 -56 166 c-31 92 -85 236 -119 321 -35 84 -73
183 -86 221 l-23 67 50 89 c76 133 164 321 185 391 10 35 24 63 31 63 6 0 12
-4 12 -9 0 -38 -57 -175 -136 -330 -52 -101 -93 -186 -90 -188 7 -7 101 73
154 132 95 103 132 206 132 365 0 91 -23 210 -51 263 -10 17 -14 15 -43 -29
-55 -82 -162 -275 -195 -353 -38 -90 -69 -207 -80 -304 -5 -52 -10 -67 -16
-52 -39 95 -111 234 -157 300 -76 111 -124 199 -173 322 l-43 105 -21 -48
c-75 -168 -77 -368 -6 -517 55 -118 192 -230 345 -284 l80 -28 89 -225 c49
-124 107 -281 129 -350 45 -138 95 -327 90 -341 -2 -5 -32 27 -66 71 -71 88
-161 176 -270 263 -66 53 -158 150 -239 252 -17 22 -34 37 -38 34 -13 -13 -6
-216 9 -283 59 -252 253 -404 536 -422 l85 -5 -112 59 c-163 86 -309 196 -364
273 -42 60 -5 46 64 -24 40 -39 106 -95 148 -124 68 -46 276 -163 292 -163 29
0 378 619 434 770 21 57 40 68 36 23 -5 -60 -213 -452 -380 -715 -68 -108 -76
-117 -95 -107 -17 9 -19 8 -14 -8 12 -39 35 -245 42 -363 10 -184 -14 -397
-66 -591 l-12 -44 -27 80 c-43 129 -120 240 -244 354 -130 120 -420 489 -732
931 l-88 125 7 -100 c29 -408 114 -812 218 -1025 42 -87 63 -117 122 -175 143
-141 378 -225 632 -225 52 0 94 -3 94 -6 0 -3 -24 -78 -54 -167 -93 -275 -151
-541 -163 -734 l-6 -103 -164 0 -163 0 0 -745 0 -745 -300 0 -300 0 0 864 0
864 428 328 427 329 3 63 3 62 -1011 0 -1010 0 0 325 0 325 470 0 470 0 -2
1657 -3 1658 -467 3 -468 2 0 440 0 440 -1570 0 -1570 0 0 290 0 290 993 2
992 3 3 1658 2 1657 -2115 0 -2115 0 2 -1657z m4188 -3 l0 -1620 -2075 0
-2075 0 0 1620 0 1620 2075 0 2075 0 0 -1620z m-4892 -1443 c-47 -42 -61 -69
-49 -100 13 -34 70 -57 147 -60 l67 -2 -7 -85 c-3 -47 -11 -103 -17 -125 -9
-33 -115 -283 -124 -293 -3 -3 -389 35 -444 44 l-33 5 51 33 c71 44 150 123
172 171 35 76 25 118 -71 284 -27 47 -52 98 -55 113 -7 28 -10 27 60 41 11 3
92 5 180 6 l160 1 -37 -33z m-835 -417 c60 -47 107 -200 107 -351 0 -63 4 -90
15 -99 22 -19 35 -3 35 46 l0 44 40 0 c57 0 95 37 86 85 -5 27 -3 34 11 37 10
2 131 -9 268 -24 138 -15 260 -27 273 -27 13 -1 22 -7 22 -17 0 -8 18 -46 39
-82 74 -128 76 -162 16 -364 -84 -282 -300 -813 -334 -820 -32 -7 -113 12
-199 46 -49 20 -102 36 -118 36 -36 0 -103 -31 -125 -56 -17 -19 -19 -25 -39
-102 l-11 -43 -27 19 c-203 143 -715 408 -934 483 -51 18 -94 33 -96 34 -1 1
18 35 42 76 52 86 102 207 112 268 l7 42 21 -19 c91 -84 283 -107 409 -49 32
14 84 52 117 83 55 52 62 56 78 42 42 -37 134 -48 218 -27 45 12 65 32 48 49
-5 5 -35 2 -69 -7 -71 -18 -150 -6 -183 30 -47 50 -51 167 -11 392 44 249 103
337 182 275z m1057 -129 c25 -24 69 -135 58 -146 -4 -4 -210 16 -216 21 -2 1
9 30 24 64 40 90 85 110 134 61z m28 -188 c27 -4 32 -9 32 -34 l0 -29 -89 0
-89 0 -21 36 c-12 19 -21 38 -21 41 0 6 130 -4 188 -14z m22 -123 c0 -57 -76
-190 -108 -190 -7 0 -8 20 -5 54 4 37 0 69 -11 102 -9 26 -16 49 -16 51 0 2
32 3 70 3 63 0 70 -2 70 -20z m2309 14 c30 -6 31 -7 31 -65 l0 -59 -217 0
-218 0 -152 -75 c-133 -64 -153 -77 -153 -97 0 -13 5 -29 12 -36 9 -9 181 -12
714 -12 l701 0 102 77 c84 64 101 81 101 104 0 15 -7 29 -16 33 -9 3 -144 6
-300 6 l-284 0 0 59 c0 58 1 59 31 65 56 11 3101 7 3097 -4 -2 -6 -116 -138
-253 -295 l-250 -284 -2742 -1 c-2343 0 -2743 2 -2743 14 0 8 13 52 30 97 16
46 39 117 51 157 16 56 25 72 40 72 25 0 86 56 108 99 11 20 24 56 31 81 7 25
14 51 16 58 3 9 235 12 1117 12 613 0 1129 -3 1146 -6z m281 -114 l0 -110
-105 0 -105 0 0 110 0 110 105 0 105 0 0 -110z m2630 -615 l0 -105 -1350 0
-1350 0 0 -1660 0 -1660 933 -2 932 -3 3 -311 2 -312 23 -8 c12 -5 -317 -10
-762 -11 l-784 -3 -34 26 c-18 14 -64 56 -101 94 -80 80 -155 130 -194 130
-40 0 -117 -33 -250 -106 l-117 -64 -75 11 c-95 14 -117 9 -175 -46 l-48 -45
-412 0 -411 0 0 29 c0 35 -40 73 -115 107 -80 38 -146 49 -221 37 l-67 -10
-56 59 c-50 51 -62 58 -96 58 -23 0 -56 -10 -84 -27 -36 -21 -56 -26 -96 -24
-44 2 -65 -5 -143 -45 -51 -26 -94 -45 -96 -43 -6 8 -136 479 -136 494 0 13
107 15 948 17 l947 3 0 1655 0 1655 -1084 3 c-1026 2 -1083 3 -1076 20 4 9 20
52 36 96 16 43 32 83 35 87 3 5 1214 9 2740 9 l2734 0 0 -105z m-7345 -44
c126 -31 213 -65 468 -187 342 -163 630 -332 691 -405 13 -16 36 -63 50 -106
25 -74 88 -344 82 -350 -1 -1 -42 27 -92 64 -49 36 -154 109 -234 161 -80 52
-157 103 -172 113 -143 100 -545 243 -1008 359 -69 17 -142 35 -162 41 l-37 9
96 160 96 160 71 0 c39 0 107 -9 151 -19z m-3376 -90 c113 -35 191 -111 264
-256 119 -237 505 -1311 627 -1745 l41 -145 -3 -253 -3 -253 77 -72 c72 -68
82 -82 154 -227 121 -244 683 -1306 1544 -2915 147 -275 277 -519 289 -543
l21 -42 -68 0 -69 0 -301 548 c-734 1337 -1246 2322 -1532 2947 -131 288 -168
387 -540 1450 -313 894 -456 1277 -539 1444 -22 45 -36 81 -32 81 5 0 36 -8
70 -19z m7301 -1631 l0 -1620 -939 0 -940 0 -15 54 c-9 30 -16 59 -16 65 0 8
247 12 858 13 l857 3 3 1483 2 1482 -1010 0 -1009 0 20 48 c12 26 25 57 30 70
l9 22 1075 0 1075 0 0 -1620z m4910 0 l0 -1620 -2075 0 -2075 0 0 1620 0 1620
2075 0 2075 0 0 -1620z m-9049 1316 c455 -120 735 -212 889 -293 192 -101 581
-365 616 -418 17 -27 70 -232 62 -241 -3 -3 -61 36 -129 86 -135 100 -174 124
-189 115 -22 -13 -6 -32 68 -81 208 -137 480 -379 537 -477 25 -43 28 -63 41
-224 16 -212 28 -280 100 -568 120 -479 624 -2287 644 -2308 4 -5 223 50 486
121 264 72 481 126 484 122 3 -4 32 -18 65 -29 173 -61 272 -195 306 -416 l11
-70 -43 -38 c-69 -62 -319 -246 -639 -472 -162 -115 -326 -232 -365 -260 -143
-106 -437 -298 -485 -316 -125 -47 -231 -6 -325 125 -49 69 -149 259 -535
1015 -472 926 -960 1903 -976 1956 -53 178 -74 477 -40 601 34 128 106 273
237 475 61 93 79 129 65 129 -2 0 -11 3 -20 6 -32 12 -249 -353 -309 -522 -51
-141 -57 -303 -21 -519 25 -152 51 -229 130 -386 41 -83 73 -153 71 -156 -10
-9 -255 246 -296 307 -24 36 -47 65 -52 64 -25 -3 -29 -5 -29 -20 0 -50 194
-268 357 -402 61 -50 97 -88 111 -117 l21 -42 -46 -7 c-83 -11 -327 -6 -428 9
-55 8 -142 27 -194 40 -77 21 -97 23 -108 13 -7 -7 -9 -19 -4 -26 11 -17 121
-47 270 -73 138 -24 395 -30 484 -11 l48 10 214 -427 c117 -234 229 -454 248
-489 l36 -62 -9 -303 c-6 -166 -11 -359 -12 -429 -3 -126 -3 -127 -33 -158
-36 -38 -68 -55 -292 -154 -182 -79 -308 -122 -458 -155 -96 -21 -325 -55
-440 -66 l-70 -6 110 64 c382 221 661 424 853 619 101 104 121 138 82 138 -11
0 -20 -4 -20 -8 0 -15 -215 -222 -310 -297 -174 -139 -575 -397 -774 -497
l-61 -31 -170 7 c-93 4 -173 11 -177 14 -6 7 -447 831 -905 1692 l-210 395 38
375 c68 669 109 1139 124 1418 28 511 75 731 200 944 65 110 145 192 329 331
249 189 599 437 616 437 8 0 108 -24 221 -54z m1402 -20 c6 -14 -19 -44 -28
-34 -7 6 6 48 15 48 4 0 10 -6 13 -14z m112 -11 c0 -22 -31 -33 -47 -17 -17
17 -1 44 24 40 15 -2 23 -10 23 -23z m80 0 c0 -23 -34 -33 -45 -14 -13 20 1
40 24 37 13 -2 21 -10 21 -23z m83 2 c4 -20 -25 -34 -40 -19 -15 15 -1 44 19
40 10 -2 19 -11 21 -21z m72 13 c23 -12 16 -40 -10 -40 -23 0 -34 16 -26 35 6
18 11 18 36 5z m95 -16 c0 -14 -7 -19 -25 -19 -30 0 -40 31 -13 38 28 7 38 2
38 -19z m80 1 c0 -13 -8 -21 -22 -23 -19 -3 -23 1 -23 23 0 22 4 26 23 23 14
-2 22 -10 22 -23z m598 13 c10 -29 -6 -38 -68 -38 -64 0 -81 9 -71 35 7 20
132 21 139 3z m362 -13 c0 -19 -8 -20 -139 -23 -141 -3 -164 2 -153 33 6 13
26 15 149 13 135 -3 143 -4 143 -23z m110 0 c0 -23 -34 -33 -45 -14 -13 20 1
40 24 37 13 -2 21 -10 21 -23z m80 0 c0 -13 -8 -21 -22 -23 -19 -3 -23 1 -23
23 0 22 4 26 23 23 14 -2 22 -10 22 -23z m85 0 c0 -18 -5 -25 -19 -25 -11 0
-23 5 -26 10 -11 18 3 40 25 40 15 0 20 -7 20 -25z m85 0 c0 -22 -31 -33 -47
-17 -17 17 -1 44 24 40 15 -2 23 -10 23 -23z m80 0 c0 -23 -34 -33 -45 -14
-13 20 1 40 24 37 13 -2 21 -10 21 -23z m83 2 c4 -20 -25 -34 -40 -19 -15 15
-1 44 19 40 10 -2 19 -11 21 -21z m-2008 -102 c7 -8 8 -15 2 -15 -5 0 -15 7
-22 15 -7 8 -8 15 -2 15 5 0 15 -7 22 -15z m1123 3 c10 -29 -6 -38 -68 -38
-64 0 -81 9 -71 35 7 20 132 21 139 3z m362 -13 c0 -19 -8 -20 -139 -23 -141
-3 -164 2 -153 33 6 13 26 15 149 13 135 -3 143 -4 143 -23z m-1370 -110 c0
-22 -31 -33 -47 -17 -17 17 -1 44 24 40 15 -2 23 -10 23 -23z m80 0 c0 -23
-34 -33 -45 -14 -13 20 1 40 24 37 13 -2 21 -10 21 -23z m80 0 c0 -13 -8 -21
-22 -23 -17 -3 -23 2 -23 16 0 10 3 22 7 26 13 13 38 1 38 -19z m88 13 c7 -21
-4 -38 -23 -38 -23 0 -34 16 -26 35 7 18 43 20 49 3z m82 -13 c0 -22 -31 -33
-47 -17 -17 17 -1 44 24 40 15 -2 23 -10 23 -23z m80 0 c0 -13 -8 -21 -22 -23
-19 -3 -23 1 -23 23 0 22 4 26 23 23 14 -2 22 -10 22 -23z m598 13 c10 -29 -6
-38 -68 -38 -64 0 -81 9 -71 35 7 20 132 21 139 3z m362 -13 c0 -19 -8 -20
-139 -23 -141 -3 -164 2 -153 33 6 13 26 15 149 13 135 -3 143 -4 143 -23z
m110 0 c0 -23 -34 -33 -45 -14 -13 20 1 40 24 37 13 -2 21 -10 21 -23z m80 0
c0 -13 -8 -21 -22 -23 -17 -3 -23 2 -23 16 0 10 3 22 7 26 13 13 38 1 38 -19z
m85 0 c0 -18 -5 -25 -19 -25 -11 0 -23 5 -26 10 -11 18 3 40 25 40 15 0 20 -7
20 -25z m85 0 c0 -22 -31 -33 -47 -17 -17 17 -1 44 24 40 15 -2 23 -10 23 -23z
m80 0 c0 -23 -34 -33 -45 -14 -13 20 1 40 24 37 13 -2 21 -10 21 -23z m83 -3
c3 -16 -2 -22 -17 -22 -24 0 -35 15 -27 36 9 23 40 13 44 -14z m-891 -93 c25
-25 2 -39 -62 -39 -64 0 -81 9 -71 35 7 18 116 21 133 4z m368 -14 c0 -19 -8
-20 -139 -23 -141 -3 -164 2 -153 33 6 13 26 15 149 13 135 -3 143 -4 143 -23z
m-368 -96 c25 -25 2 -39 -62 -39 -64 0 -81 9 -71 35 7 18 116 21 133 4z m368
-14 c0 -19 -8 -20 -139 -23 -141 -3 -164 2 -153 33 6 13 26 15 149 13 135 -3
143 -4 143 -23z m-1007 -99 c-2 -13 -10 -21 -23 -21 -23 0 -33 34 -14 45 20
13 40 -1 37 -24z m77 18 c12 -12 13 -19 4 -30 -6 -8 -18 -14 -26 -14 -19 0
-28 27 -13 45 15 19 15 19 35 -1z m171 -29 c-3 -9 -14 -15 -23 -13 -22 4 -30
38 -11 49 18 11 43 -15 34 -36z m82 11 c-2 -13 -10 -21 -23 -21 -23 0 -33 34
-14 45 20 13 40 -1 37 -24z m1070 0 c-2 -13 -10 -21 -23 -21 -23 0 -33 34 -14
45 20 13 40 -1 37 -24z m80 0 c-4 -25 -36 -34 -44 -12 -8 21 13 46 32 39 8 -3
14 -15 12 -27z m172 -3 c0 -21 -29 -28 -46 -11 -14 13 -14 17 1 32 13 13 20
14 31 5 8 -6 14 -18 14 -26z m78 3 c-2 -13 -10 -21 -23 -21 -23 0 -33 34 -14
45 20 13 40 -1 37 -24z m77 18 c12 -12 13 -19 4 -30 -6 -8 -18 -14 -26 -14
-19 0 -28 27 -13 45 15 19 15 19 35 -1z m-1887 -17 c2 -9 -4 -20 -12 -23 -21
-8 -46 13 -39 32 8 20 47 13 51 -9z m247 -2 c0 -25 -40 -33 -49 -10 -9 24 2
37 27 33 14 -2 22 -10 22 -23z m1399 16 c10 -16 -5 -41 -24 -41 -23 0 -34 16
-26 35 6 16 42 20 50 6z m-1739 -26 c0 -18 -8 -20 -82 -23 l-83 -3 0 26 0 26
83 -3 c74 -3 82 -5 82 -23z m815 10 c20 -25 1 -35 -65 -35 -64 0 -82 9 -71 35
8 21 119 21 136 0z m665 -10 c0 -19 -8 -20 -139 -23 -141 -3 -164 2 -153 33 6
13 26 15 149 13 135 -3 143 -4 143 -23z m-1480 -110 c0 -18 -8 -20 -72 -23
-73 -3 -73 -3 -73 23 0 26 0 26 73 23 64 -3 72 -5 72 -23z m815 10 c20 -25 1
-35 -66 -35 -50 0 -66 4 -71 16 -9 23 15 34 73 34 33 0 56 -5 64 -15z m665
-10 c0 -19 -8 -20 -139 -23 -141 -3 -164 2 -153 33 6 13 26 15 149 13 135 -3
143 -4 143 -23z m-1401 -81 c21 -8 21 -43 0 -51 -8 -3 -23 1 -31 10 -13 13
-14 19 -3 31 14 18 13 18 34 10z m91 -24 c0 -16 -6 -26 -18 -28 -19 -4 -32 20
-23 44 9 25 41 13 41 -16z m80 -1 c0 -17 -6 -24 -20 -24 -23 0 -33 34 -13 46
20 13 33 5 33 -22z m85 15 c11 -12 10 -18 -3 -32 -16 -15 -18 -15 -34 0 -13
14 -14 20 -3 32 7 9 16 16 20 16 4 0 13 -7 20 -16z m78 7 c19 -11 11 -45 -11
-49 -19 -4 -32 20 -23 43 6 17 15 19 34 6z m87 -21 c0 -16 -6 -26 -18 -28 -19
-4 -32 20 -23 44 9 25 41 13 41 -16z m1070 0 c0 -16 -6 -26 -18 -28 -19 -4
-32 20 -23 44 9 25 41 13 41 -16z m80 0 c0 -16 -6 -26 -18 -28 -19 -4 -32 20
-23 44 9 25 41 13 41 -16z m85 14 c11 -12 10 -18 -3 -32 -16 -15 -18 -15 -34
0 -13 14 -14 20 -3 32 7 9 16 16 20 16 4 0 13 -7 20 -16z m74 10 c21 -8 21
-43 0 -51 -8 -3 -23 1 -31 10 -13 13 -14 19 -3 31 14 18 13 18 34 10z m91 -24
c0 -16 -6 -26 -18 -28 -19 -4 -32 20 -23 44 9 25 41 13 41 -16z m85 14 c11
-12 10 -18 -3 -31 -8 -9 -23 -13 -31 -10 -19 8 -21 43 -3 50 20 9 24 8 37 -9z
m-1991 -3 c8 -5 11 -16 8 -25 -5 -12 -20 -16 -61 -16 -52 0 -66 8 -66 41 0 12
100 12 119 0z m821 -6 c20 -25 1 -35 -65 -35 -66 0 -85 10 -65 35 8 10 31 15
65 15 34 0 57 -5 65 -15z m665 -10 c0 -19 -8 -20 -139 -23 -141 -3 -164 2
-153 33 6 13 26 15 149 13 135 -3 143 -4 143 -23z m-1507 -109 c4 -21 -14 -37
-35 -29 -14 5 -18 35 -6 47 12 12 38 1 41 -18z m81 10 c9 -11 8 -18 -5 -31
-15 -15 -19 -15 -32 -1 -17 17 -10 46 11 46 8 0 20 -6 26 -14z m88 -2 c3 -8
-2 -23 -11 -32 -14 -15 -18 -15 -31 -1 -9 9 -13 23 -9 32 8 21 43 22 51 1z
m79 1 c8 -20 -13 -45 -32 -38 -14 5 -19 34 -7 46 11 12 33 7 39 -8z m589 -18
c31 -23 8 -37 -60 -37 -66 0 -85 10 -65 35 16 19 100 20 125 2z m365 -2 c24
-29 0 -35 -146 -35 -135 0 -144 1 -144 19 0 11 6 22 13 24 6 3 69 6 138 6 99
1 129 -2 139 -14z m117 -1 c3 -8 -2 -23 -11 -32 -15 -15 -17 -15 -33 0 -13 14
-14 20 -3 32 16 20 39 20 47 0z m81 -10 c3 -22 -21 -39 -39 -28 -11 6 -12 38
-2 48 13 13 38 1 41 -20z m80 2 c5 -24 -10 -38 -31 -30 -17 6 -23 35 -10 48
12 12 38 1 41 -18z m82 8 c11 -12 10 -18 -3 -32 -16 -15 -18 -15 -34 0 -13 14
-14 20 -3 32 7 9 16 16 20 16 4 0 13 -7 20 -16z m88 -10 c4 -29 -28 -41 -45
-18 -10 13 -10 21 -1 31 16 19 42 12 46 -13z m77 -4 c0 -16 -6 -26 -18 -28
-19 -4 -32 20 -23 44 9 25 41 13 41 -16z m-890 -93 c31 -23 8 -37 -60 -37 -37
0 -67 5 -71 12 -11 18 26 38 71 38 23 0 49 -6 60 -13z m360 0 c38 -29 7 -37
-141 -37 -135 0 -144 1 -144 19 0 27 10 29 146 30 86 1 125 -3 139 -12z m6972
-79 c13 -40 38 -97 55 -127 41 -70 146 -181 211 -222 29 -18 54 -34 56 -36 3
-2 0 -8 -6 -14 -32 -32 -234 159 -295 278 -44 83 -72 168 -64 190 9 23 16 13
43 -69z m-8003 -15 c4 -9 0 -23 -9 -32 -13 -14 -17 -14 -32 1 -13 14 -14 20
-3 32 16 21 36 20 44 -1z m84 -9 c3 -22 -21 -39 -39 -28 -11 6 -12 38 -2 48
13 13 38 1 41 -20z m1056 0 c20 -8 20 -28 0 -44 -12 -11 -18 -10 -31 3 -13 13
-14 19 -3 31 14 18 13 18 34 10z m91 -24 c0 -29 -32 -41 -41 -16 -9 24 4 48
23 44 12 -2 18 -12 18 -28z m80 0 c0 -29 -32 -41 -41 -16 -9 24 4 48 23 44 12
-2 18 -12 18 -28z m85 14 c11 -12 10 -18 -3 -32 -16 -15 -18 -15 -34 0 -13 14
-14 20 -3 32 7 9 16 16 20 16 4 0 13 -7 20 -16z m88 -10 c4 -27 -26 -40 -46
-20 -13 13 -13 18 -2 31 18 21 44 15 48 -11z m77 -4 c0 -16 -6 -26 -18 -28
-19 -4 -32 20 -23 44 9 25 41 13 41 -16z m-880 0 c0 -11 -15 -16 -64 -18 -64
-3 -89 6 -76 28 4 7 32 10 73 8 52 -2 67 -6 67 -18z m360 0 c0 -13 -24 -15
-147 -18 -144 -2 -148 -2 -148 18 0 20 4 20 148 18 123 -3 147 -5 147 -18z
m-360 -110 c0 -11 -15 -16 -64 -18 -64 -3 -89 6 -76 28 4 7 32 10 73 8 52 -2
67 -6 67 -18z m360 0 c0 -13 -24 -15 -147 -18 -144 -2 -148 -2 -148 18 0 20 4
20 148 18 123 -3 147 -5 147 -18z m-360 -110 c0 -11 -15 -16 -64 -18 -64 -3
-89 6 -76 28 4 7 32 10 73 8 52 -2 67 -6 67 -18z m360 0 c0 -13 -24 -15 -147
-18 -144 -2 -148 -2 -148 18 0 20 4 20 148 18 123 -3 147 -5 147 -18z m-922
-62 c6 -19 -3 -38 -19 -38 -8 0 -14 10 -14 25 0 26 25 35 33 13z m82 -13 c0
-22 -31 -33 -47 -17 -17 17 -1 44 24 40 15 -2 23 -10 23 -23z m80 0 c0 -13 -8
-21 -22 -23 -19 -3 -23 1 -23 23 0 22 4 26 23 23 14 -2 22 -10 22 -23z m83 -3
c3 -16 -2 -22 -17 -22 -24 0 -35 15 -27 36 9 23 40 13 44 -14z m1070 -20 c3
-18 -1 -22 -22 -22 -19 0 -26 5 -26 18 0 39 43 43 48 4z m80 0 c3 -16 -2 -22
-17 -22 -24 0 -35 15 -27 36 9 23 40 13 44 -14z m86 12 c8 -21 -1 -34 -24 -34
-22 0 -34 15 -26 35 7 20 42 19 50 -1z m81 -9 c0 -23 -34 -33 -46 -14 -10 17
9 41 30 37 9 -2 16 -12 16 -23z m83 -3 c3 -18 -1 -22 -22 -22 -19 0 -26 5 -26
18 0 39 43 43 48 4z m85 16 c7 -21 -4 -38 -23 -38 -23 0 -34 16 -26 35 7 18
43 20 49 3z m-1167 -20 c11 -18 -26 -38 -71 -38 -45 0 -82 20 -71 38 4 7 34
12 71 12 37 0 67 -5 71 -12z m664 -7 c0 -27 -18 -31 -153 -31 -127 0 -154 7
-144 34 5 14 28 16 152 16 136 0 145 -1 145 -19z m-665 -101 c14 -22 -17 -40
-70 -40 -34 0 -57 5 -65 15 -20 25 -1 35 65 35 35 0 67 -5 70 -10z m662 -6
c10 -27 -18 -34 -147 -34 -129 0 -157 7 -147 34 5 14 27 16 147 16 120 0 142
-2 147 -16z m-1224 -79 c4 -8 2 -17 -3 -20 -6 -4 -10 3 -10 14 0 25 6 27 13 6z
m82 -10 c0 -22 -31 -33 -47 -17 -17 17 -1 44 24 40 15 -2 23 -10 23 -23z m80
0 c0 -30 -39 -27 -43 3 -3 20 0 23 20 20 15 -2 23 -10 23 -23z m83 3 c-2 -15
-10 -23 -23 -23 -13 0 -21 8 -23 23 -3 18 1 22 23 22 22 0 26 -4 23 -22z
m1067 -23 c0 -30 -39 -27 -43 3 -3 20 0 23 20 20 15 -2 23 -10 23 -23z m85 0
c0 -18 -5 -25 -19 -25 -11 0 -23 5 -26 10 -11 18 3 40 25 40 15 0 20 -7 20
-25z m85 0 c0 -22 -31 -33 -47 -17 -17 17 -1 44 24 40 15 -2 23 -10 23 -23z
m80 0 c0 -23 -34 -33 -45 -14 -13 20 1 40 24 37 13 -2 21 -10 21 -23z m85 5
c0 -24 -26 -38 -42 -22 -16 16 -2 42 22 42 13 0 20 -7 20 -20z m83 8 c7 -21
-4 -38 -23 -38 -23 0 -34 16 -26 35 7 18 43 20 49 3z m-1168 -8 c14 -22 -17
-40 -70 -40 -34 0 -57 5 -65 15 -20 25 -1 35 65 35 35 0 67 -5 70 -10z m662
-6 c10 -27 -18 -34 -147 -34 -129 0 -157 7 -147 34 5 14 27 16 147 16 120 0
142 -2 147 -16z m-1059 -652 c4 -25 -13 -30 -22 -6 -9 25 -7 36 7 32 6 -3 13
-14 15 -26z m77 -2 c0 -16 -6 -26 -18 -28 -19 -4 -32 20 -23 44 9 25 41 13 41
-16z m3 -226 c4 -29 -25 -39 -38 -13 -6 10 -8 24 -5 30 11 17 40 5 43 -17z
m5352 -719 l0 -325 -250 0 c-160 0 -250 4 -250 10 0 6 9 10 20 10 20 0 20 7
20 315 l0 315 230 0 230 0 0 -325z m2304 147 c96 -146 279 -301 471 -399 52
-26 95 -54 95 -60 0 -19 -3 -18 -103 33 -109 55 -209 122 -300 199 -107 91
-249 278 -232 306 9 13 10 12 69 -79z m-6964 -273 c22 -23 40 -46 40 -53 0 -6
-48 -37 -105 -69 -97 -54 -131 -87 -87 -87 9 0 73 32 141 70 163 91 233 101
350 49 99 -43 132 -89 94 -131 -20 -22 -39 -23 -86 -3 -53 22 -162 19 -216 -5
-45 -21 -204 -142 -305 -233 -39 -35 -58 -58 -54 -68 9 -24 152 -63 204 -55
23 3 109 30 189 61 153 58 185 64 205 40 19 -22 3 -50 -58 -105 -97 -87 -210
-157 -272 -169 -54 -11 -311 -33 -316 -28 -5 5 -196 679 -192 681 34 26 184
96 201 94 18 -3 12 -10 -40 -46 -60 -41 -81 -72 -47 -72 8 0 58 30 111 68 137
97 145 102 176 102 19 0 39 -13 67 -41z m2041 -18 c24 -17 55 -41 68 -55 23
-24 23 -26 5 -26 -31 0 -398 -213 -402 -233 -2 -9 3 -17 11 -17 7 0 96 47 197
105 102 58 190 105 197 105 68 0 331 -223 307 -261 -10 -16 -91 -9 -139 11
-76 32 -100 27 -224 -47 -145 -88 -144 -96 15 -104 149 -8 169 -17 280 -122
85 -80 97 -100 68 -111 -32 -12 -58 -5 -134 35 l-78 42 -113 -22 c-62 -12
-118 -26 -123 -31 -15 -15 160 -186 231 -227 70 -39 82 -51 62 -64 -30 -19
-76 -8 -140 31 -85 54 -297 160 -319 160 -9 0 -50 -25 -91 -57 -94 -71 -175
-109 -273 -128 -134 -26 -131 -27 -144 61 -22 139 -83 232 -196 298 l-66 39
58 61 c86 91 123 140 190 251 67 111 120 172 157 181 14 3 46 2 72 -2 l47 -9
-52 -34 c-51 -32 -68 -61 -36 -61 8 0 41 17 72 38 149 100 381 222 423 222 14
0 46 -13 70 -29z m2079 -276 l0 -115 -105 0 -105 0 0 115 0 115 105 0 105 0 0
-115z m-2856 8 c-44 -78 -111 -169 -171 -233 l-55 -60 -318 0 c-311 0 -318 0
-346 -22 l-29 -22 26 30 c55 61 62 101 24 139 -36 37 -72 32 -253 -35 -88 -33
-172 -60 -185 -60 -13 0 -48 7 -78 16 l-54 16 40 35 c98 86 243 198 280 214
49 23 142 25 192 4 50 -21 96 -19 118 5 18 19 31 20 427 20 l409 0 -27 -47z
m2606 17 l0 -30 -213 0 -213 0 -154 -75 c-84 -40 -158 -81 -162 -89 -5 -9 -4
-24 2 -36 11 -20 19 -20 721 -20 l711 0 99 76 c100 77 117 102 87 132 -20 20
1496 12 1535 -7 71 -37 25 -128 -83 -166 -79 -28 -228 -44 -490 -55 -317 -13
-429 -25 -539 -56 -91 -27 -209 -85 -272 -134 l-37 -30 -212 0 -212 0 -334
-267 c-215 -172 -334 -273 -332 -283 3 -13 71 -15 578 -18 l575 -2 367 267
c237 173 367 274 368 286 0 16 -24 17 -362 17 l-363 1 25 20 c55 46 180 98
300 124 36 8 169 19 295 25 552 24 688 48 764 136 58 65 49 133 -22 171 -30
17 -99 18 -1084 21 -678 1 -1053 6 -1053 12 0 7 534 10 1512 10 892 0 1508 -4
1503 -9 -6 -5 -377 -291 -825 -635 l-814 -626 -2341 0 -2340 1 35 29 34 30
1256 0 1255 0 490 391 490 391 0 42 0 41 -1043 3 -1042 2 -41 30 c-44 32 -65
37 -174 48 l-70 7 71 43 c79 47 100 50 163 22 59 -27 144 -27 171 0 11 11 20
26 20 33 0 22 -59 105 -93 132 l-32 25 763 0 762 0 0 -30z m-2973 -361 c-15
-9 -209 -64 -287 -82 -14 -3 -122 -33 -240 -66 -118 -33 -216 -58 -218 -57 -1
2 57 51 130 110 l133 106 250 0 c180 -1 245 -4 232 -11z m3437 2 c-5 -5 -213
-171 -462 -370 l-454 -361 -1186 0 -1187 1 50 44 49 45 1126 1 1125 0 320 259
c206 167 320 265 320 277 0 17 -36 18 -785 21 l-786 2 -44 45 -44 45 984 0
c568 0 980 -4 974 -9z m-4004 -5 c0 -2 -8 -10 -17 -17 -16 -13 -17 -12 -4 4
13 16 21 21 21 13z m730 -64 c68 -32 138 -102 169 -167 17 -37 24 -74 28 -145
l6 -96 -61 -53 -61 -52 -6 28 c-24 111 -39 157 -72 217 -53 96 -126 166 -219
213 l-77 38 49 13 c27 8 67 20 89 28 48 16 82 11 155 -24z m-780 24 c0 -2 -8
-10 -17 -17 -16 -13 -17 -12 -4 4 13 16 21 21 21 13z m-40 -30 c0 -8 -190
-156 -212 -166 -44 -18 -248 -71 -257 -66 -11 7 -35 95 -28 102 3 3 57 10 119
15 196 15 239 25 310 74 68 47 68 47 68 41z m2030 -71 c28 -14 50 -28 50 -30
0 -3 -46 -5 -101 -5 l-102 0 38 30 c46 36 52 37 115 5z m340 -5 c-30 -27 -42
-30 -99 -30 -62 0 -64 1 -43 16 12 8 22 22 22 30 0 11 16 14 78 14 l77 -1 -35
-29z m262 0 c-31 -29 -36 -30 -129 -30 l-97 0 34 30 c33 28 39 29 130 29 l95
0 -33 -29z m268 0 c-34 -28 -39 -29 -134 -30 l-99 0 38 30 c36 29 42 30 134
30 l96 -1 -35 -29z m260 0 c-33 -29 -38 -30 -130 -30 l-95 1 35 29 c33 28 39
29 130 29 l95 0 -35 -29z m290 25 c0 -3 -12 -17 -27 -30 -26 -22 -37 -24 -127
-25 l-99 0 38 30 c36 28 43 30 126 30 49 0 89 -2 89 -5z m242 -25 c-31 -29
-35 -30 -130 -30 l-97 1 35 29 c33 29 38 30 130 30 l95 -1 -33 -29z m-1844 4
c-11 -11 -23 -14 -35 -9 -17 7 -17 8 2 15 11 5 27 9 35 9 12 1 11 -2 -2 -15z
m2662 -35 c-112 -12 -181 -41 -230 -97 -43 -49 -140 -231 -140 -262 0 -9 9
-29 21 -44 l20 -26 158 0 157 0 55 58 c107 111 219 240 219 252 0 49 -61 110
-110 110 -11 0 -20 5 -20 10 0 6 122 10 347 10 213 0 343 -4 338 -9 -6 -5
-152 -113 -325 -240 l-315 -231 -534 0 c-327 0 -531 4 -525 9 5 5 139 113 298
240 l288 231 187 -1 c154 -1 173 -3 111 -10z m-2535 -74 c-37 -31 -36 -31 -65
0 l-23 25 59 0 59 -1 -30 -24z m260 -5 c-36 -29 -42 -30 -133 -30 l-96 0 34
30 c34 28 39 29 134 30 l99 0 -38 -30z m265 0 c-33 -28 -39 -29 -130 -29 l-95
0 33 29 c31 29 36 30 130 30 l97 -1 -35 -29z m260 0 c-33 -29 -38 -30 -130
-30 l-95 1 35 29 c33 28 39 29 130 29 l95 0 -35 -29z m270 0 c-34 -28 -39 -29
-133 -30 l-97 0 32 30 c32 28 36 29 133 30 l99 0 -34 -30z m260 0 c-33 -28
-39 -29 -130 -29 l-95 0 35 29 c33 29 38 30 130 30 l95 -1 -35 -29z m270 0
c-34 -28 -39 -29 -135 -30 l-99 0 34 30 c34 28 39 29 135 30 l99 0 -34 -30z
m1109 -2 c0 -7 -19 -27 -42 -43 -54 -40 -95 -107 -103 -170 -8 -72 -13 -84
-25 -64 -12 22 4 107 30 157 19 38 114 132 132 132 5 0 9 -6 8 -12z m-3049
-19 c10 -5 -2 -8 -34 -9 -42 0 -47 2 -36 15 13 15 36 13 70 -6z m-3201 -310
c77 -152 141 -279 141 -283 0 -3 -69 -5 -152 -4 l-153 3 3 255 c3 226 8 318
17 308 1 -2 66 -127 144 -279z m3161 231 c-32 -28 -40 -30 -114 -30 l-80 0 44
29 c39 25 55 29 115 30 l70 0 -35 -29z m180 10 c66 -34 59 -40 -46 -40 l-97 0
38 30 c45 35 53 36 105 10z m380 16 c0 -3 -13 -14 -29 -25 l-28 -20 -23 24
-23 25 51 0 c29 0 52 -2 52 -4z m232 -26 c-31 -29 -36 -30 -129 -30 l-97 0 34
30 c33 28 39 29 130 29 l95 0 -33 -29z m268 0 c-34 -28 -39 -29 -134 -30 l-99
0 38 30 c36 29 42 30 134 30 l96 -1 -35 -29z m260 0 c-33 -29 -38 -30 -130
-30 l-95 1 35 29 c33 28 39 29 130 29 l95 0 -35 -29z m270 0 c-34 -28 -39 -29
-134 -30 l-99 0 38 30 c36 29 42 30 133 30 l96 0 -34 -30z m262 0 c-31 -29
-35 -30 -130 -30 l-97 1 35 29 c33 29 38 30 130 30 l95 -1 -33 -29z m-1952
-84 c0 -2 -17 -15 -38 -30 -34 -23 -47 -26 -127 -26 l-89 0 29 30 c28 29 31
30 127 30 54 0 98 -2 98 -4z m230 -26 c-33 -28 -39 -29 -130 -29 l-95 0 35 29
c33 29 38 30 130 30 l95 -1 -35 -29z m234 16 l38 -13 -23 -17 c-17 -12 -46
-16 -111 -16 -49 0 -88 2 -88 5 0 3 12 17 28 30 32 28 94 33 156 11z m326 9
c0 -2 -17 -16 -37 -30 -34 -22 -47 -25 -128 -25 l-90 1 33 29 c31 29 36 30
127 30 52 0 95 -2 95 -5z m230 -25 c-33 -29 -38 -30 -130 -30 l-95 1 35 29
c33 28 39 29 130 29 l95 0 -35 -29z m300 26 c0 -2 -17 -15 -38 -30 -34 -23
-47 -26 -125 -26 -48 0 -87 2 -87 5 0 3 12 17 28 30 25 22 36 24 125 25 53 0
97 -2 97 -4z m230 -26 c-33 -28 -39 -29 -130 -29 l-95 0 35 29 c33 29 38 30
130 30 l95 -1 -35 -29z m300 26 c0 -2 -17 -15 -38 -30 -34 -23 -47 -26 -125
-26 -48 0 -87 2 -87 5 0 3 12 17 28 30 25 22 36 24 125 25 53 0 97 -2 97 -4z
m-2155 -31 c-39 -32 -105 -35 -105 -6 0 20 3 21 115 29 17 1 15 -3 -10 -23z
m-115 -95 c-24 -20 -46 -30 -69 -30 l-35 0 29 30 c23 24 37 30 69 30 l41 -1
-35 -29z m260 0 c-33 -29 -38 -30 -130 -30 l-95 1 35 29 c33 28 39 29 130 29
l95 0 -35 -29z m270 0 c-34 -28 -39 -29 -133 -30 l-97 0 32 30 c32 28 36 29
133 30 l99 0 -34 -30z m260 0 c-33 -28 -39 -29 -130 -29 l-95 0 35 29 c33 29
38 30 130 30 l95 -1 -35 -29z m265 0 c-36 -29 -42 -30 -133 -30 l-96 0 34 30
c34 28 39 29 134 30 l99 0 -38 -30z m265 0 c-34 -28 -39 -29 -134 -30 l-99 0
38 30 c36 29 42 30 134 30 l96 -1 -35 -29z m260 0 c-33 -29 -38 -30 -130 -30
l-95 1 35 29 c33 28 39 29 130 29 l95 0 -35 -29z m270 0 c-34 -28 -39 -29
-133 -30 l-97 0 32 30 c32 28 36 29 133 30 l99 0 -34 -30z m262 0 c-31 -29
-35 -30 -130 -30 l-97 1 35 29 c33 29 38 30 130 30 l95 -1 -33 -29z m-605
-207 c-334 -2 -880 -2 -1215 0 -334 1 -60 2 608 2 668 0 942 -1 607 -2z
m-3973 -159 c3 -9 6 -18 6 -20 0 -2 -79 -4 -175 -4 -168 0 -175 1 -175 20 0
19 7 20 169 20 145 0 170 -2 175 -16z m6696 -4 c0 -20 -7 -20 -2396 -20 -2384
0 -2396 0 -2373 20 24 19 52 19 2397 20 2365 0 2372 0 2372 -20z m-6812 -264
l2 -198 -42 5 c-24 4 -68 9 -99 13 l-56 6 -29 126 c-16 70 -27 132 -25 137 2
6 8 28 14 50 5 22 11 46 13 53 3 10 30 12 111 10 l108 -3 3 -199z m154 187
c22 -26 219 -415 213 -421 -3 -3 -77 3 -165 13 l-160 18 0 204 0 203 48 0 c34
0 53 -5 64 -17z m5786 -525 l2 -538 -1621 0 -1621 0 -91 77 c-170 142 -344
243 -512 297 -103 32 -276 65 -595 111 -140 20 -268 39 -285 43 -28 7 -25 10
96 94 70 47 244 170 389 272 l263 186 1986 -2 1986 -3 3 -537z m547 2 l0 -535
-112 -3 -113 -3 0 541 0 541 113 -3 112 -3 0 -535z"/>
<path d="M7625 11348 c-3 -7 -4 -674 -3 -1483 l3 -1470 1890 0 1890 0 3 1469
c1 1077 -1 1472 -9 1482 -16 20 -3767 21 -3774 2z m2190 -303 c0 -17 -8 -20
-59 -23 -62 -3 -83 6 -72 33 5 13 18 15 68 13 55 -3 63 -5 63 -23z m360 0 c0
-19 -8 -20 -139 -23 -141 -3 -164 2 -153 33 6 13 26 15 149 13 135 -3 143 -4
143 -23z m118 13 c7 -21 -4 -38 -23 -38 -23 0 -34 16 -26 35 7 18 43 20 49 3z
m82 -13 c0 -22 -31 -33 -47 -17 -17 17 -1 44 24 40 15 -2 23 -10 23 -23z m80
0 c0 -13 -8 -21 -22 -23 -19 -3 -23 1 -23 23 0 22 4 26 23 23 14 -2 22 -10 22
-23z m83 -3 c3 -16 -2 -22 -17 -22 -24 0 -35 15 -27 36 9 23 40 13 44 -14z
m86 12 c8 -21 -1 -34 -24 -34 -22 0 -34 15 -26 35 7 20 42 19 50 -1z m81 -9
c0 -23 -34 -33 -45 -14 -13 20 1 40 24 37 13 -2 21 -10 21 -23z m-1225 -375
l0 -360 -785 0 -785 0 0 360 0 360 785 0 785 0 0 -360z m335 265 c0 -17 -8
-20 -59 -23 -62 -3 -83 6 -72 33 5 13 18 15 68 13 55 -3 63 -5 63 -23z m360 0
c0 -19 -8 -20 -139 -23 -77 -1 -143 1 -148 6 -5 5 -6 16 -2 26 6 15 23 16 148
14 133 -3 141 -4 141 -23z m-360 -110 c0 -17 -8 -20 -59 -23 -62 -3 -83 6 -72
33 5 13 18 15 68 13 55 -3 63 -5 63 -23z m360 0 c0 -19 -8 -20 -139 -23 -77
-1 -143 1 -148 6 -5 5 -6 16 -2 26 6 15 23 16 148 14 133 -3 141 -4 141 -23z
m118 13 c7 -21 -4 -38 -23 -38 -23 0 -34 16 -26 35 7 18 43 20 49 3z m82 -13
c0 -22 -31 -33 -47 -17 -17 17 -1 44 24 40 15 -2 23 -10 23 -23z m80 0 c0 -13
-8 -21 -22 -23 -17 -3 -23 2 -23 16 0 10 3 22 7 26 13 13 38 1 38 -19z m83 -3
c3 -16 -2 -22 -17 -22 -24 0 -35 15 -27 36 9 23 40 13 44 -14z m86 12 c8 -21
-1 -34 -24 -34 -22 0 -34 15 -26 35 7 20 42 19 50 -1z m81 -9 c0 -23 -34 -33
-45 -14 -13 20 1 40 24 37 13 -2 21 -10 21 -23z m-890 -110 c0 -17 -8 -20 -59
-23 -62 -3 -83 6 -72 33 5 13 18 15 68 13 55 -3 63 -5 63 -23z m363 -2 c3 -23
3 -23 -142 -23 -146 0 -170 6 -145 36 10 12 37 14 148 12 132 -3 136 -4 139
-25z m-363 -108 c0 -17 -8 -20 -59 -23 -62 -3 -83 6 -72 33 5 13 18 15 68 13
55 -3 63 -5 63 -23z m363 -2 c3 -23 3 -23 -142 -23 -146 0 -170 6 -145 36 10
12 37 14 148 12 132 -3 136 -4 139 -25z m397 -98 c0 -25 -40 -33 -49 -10 -9
24 2 37 27 33 14 -2 22 -10 22 -23z m80 0 c0 -30 -39 -27 -43 3 -3 20 0 23 20
20 15 -2 23 -10 23 -23z m85 5 c0 -24 -26 -38 -42 -22 -16 16 -2 42 22 42 13
0 20 -7 20 -20z m84 11 c10 -16 -5 -41 -24 -41 -23 0 -34 16 -26 35 6 16 42
20 50 6z m81 -16 c0 -25 -40 -33 -49 -10 -9 24 2 37 27 33 14 -2 22 -10 22
-23z m83 3 c-2 -15 -10 -23 -23 -23 -13 0 -21 8 -23 23 -3 18 1 22 23 22 22 0
26 -4 23 -22z m-1173 -13 c0 -17 -8 -20 -59 -23 -62 -3 -83 6 -72 33 5 13 18
15 68 13 55 -3 63 -5 63 -23z m665 10 c24 -29 0 -35 -146 -35 -133 0 -144 1
-144 18 0 10 3 22 7 25 3 4 66 7 138 7 104 0 135 -3 145 -15z m-662 -122 c3
-22 0 -23 -62 -23 -65 0 -83 9 -72 36 4 12 20 14 68 12 57 -3 63 -5 66 -25z
m662 12 c24 -29 0 -35 -146 -35 -133 0 -144 1 -144 18 0 10 3 22 7 25 3 4 66
7 138 7 104 0 135 -3 145 -15z m90 -101 c11 -12 10 -18 -3 -32 -16 -15 -18
-15 -34 0 -13 14 -14 20 -3 32 7 9 16 16 20 16 4 0 13 -7 20 -16z m78 7 c19
-11 11 -45 -11 -49 -19 -4 -32 20 -23 43 6 17 15 19 34 6z m87 -22 c0 -17 -6
-24 -20 -24 -23 0 -33 34 -13 46 20 13 33 5 33 -22z m85 16 c10 -12 10 -18 0
-30 -16 -19 -39 -19 -46 0 -6 15 11 45 26 45 4 0 13 -7 20 -15z m80 0 c15 -18
6 -45 -13 -45 -8 0 -20 7 -27 15 -10 12 -10 18 0 30 16 19 24 19 40 0z m78 6
c19 -11 11 -45 -11 -49 -19 -4 -32 20 -23 43 6 17 15 19 34 6z m-1160 -28 c3
-22 0 -23 -62 -23 -65 0 -83 9 -72 36 4 12 20 14 68 12 57 -3 63 -5 66 -25z
m662 12 c24 -29 0 -35 -146 -35 -133 0 -144 1 -144 18 0 10 3 22 7 25 3 4 66
7 138 7 104 0 135 -3 145 -15z m-2392 -377 l3 -118 -121 0 -120 0 0 120 0 121
118 -3 117 -3 3 -117z m2900 0 l3 -118 -121 0 -120 0 0 120 0 121 118 -3 117
-3 3 -117z m-2312 -43 c115 -20 202 -50 364 -125 177 -82 266 -104 390 -97
109 6 190 32 322 102 96 50 160 76 273 106 72 20 111 23 383 27 301 4 302 4
302 -17 0 -21 -3 -21 -238 -21 -367 0 -477 -21 -705 -136 -156 -79 -247 -104
-371 -104 -125 0 -196 19 -373 100 -260 119 -362 140 -690 140 -196 0 -203 1
-203 20 0 19 7 20 229 20 161 0 255 -5 317 -15z m-588 -252 l-3 -118 -117 -3
-118 -3 0 121 0 120 120 0 121 0 -3 -117z m2902 -3 l0 -120 -120 0 -120 0 0
120 0 120 120 0 120 0 0 -120z m-2307 5 c102 -18 227 -62 392 -139 259 -120
395 -116 676 19 95 46 195 86 255 102 95 26 112 27 402 31 300 4 302 3 302
-17 0 -21 -4 -21 -252 -21 -360 0 -490 -26 -703 -140 -149 -80 -207 -95 -365
-94 -155 1 -177 7 -408 114 -74 34 -177 73 -230 87 -89 24 -118 26 -359 31
-250 4 -263 5 -263 23 0 18 11 19 234 19 162 0 259 -5 319 -15z m882 -312 c33
-8 123 -46 200 -83 238 -118 354 -140 725 -140 213 0 220 -1 220 -20 0 -19 -7
-20 -247 -20 -373 0 -477 21 -728 145 -154 77 -219 95 -338 95 -118 0 -182
-18 -363 -100 -262 -120 -363 -140 -696 -140 -197 0 -208 1 -208 19 0 17 14
19 248 24 331 8 389 20 653 143 223 103 355 122 534 77z m-1477 -195 l3 -118
-121 0 -120 0 0 120 0 121 118 -3 117 -3 3 -117z m2900 0 l3 -118 -121 0 -120
0 0 120 0 121 118 -3 117 -3 3 -117z m-1423 -53 c33 -8 123 -46 200 -84 77
-38 156 -74 175 -80 143 -43 151 -44 460 -50 296 -6 305 -7 305 -26 0 -19 -8
-20 -220 -23 -365 -5 -484 18 -745 143 -172 82 -220 95 -348 95 -114 0 -177
-17 -349 -95 -273 -124 -323 -135 -656 -142 l-259 -6 4 24 3 24 270 6 c326 7
373 17 600 124 147 69 192 86 270 101 81 16 203 11 290 -11z m-1477 -242 l-3
-118 -117 -3 -118 -3 0 121 0 120 120 0 121 0 -3 -117z m2900 0 l-3 -118 -117
-3 -118 -3 0 121 0 120 120 0 121 0 -3 -117z"/>
<path d="M7960 10670 l0 -320 740 0 740 0 0 320 0 320 -740 0 -740 0 0 -320z"/>
<path d="M9712 5088 l3 -1483 1879 -3 c1383 -1 1882 1 1892 9 12 10 14 253 12
1483 l-3 1471 -1893 3 -1892 2 2 -1482z m393 1287 c0 -17 -8 -20 -59 -23 -62
-3 -83 6 -72 33 5 13 18 15 68 13 55 -3 63 -5 63 -23z m360 0 c0 -19 -8 -20
-139 -23 -141 -3 -164 2 -153 33 6 13 26 15 149 13 135 -3 143 -4 143 -23z
m113 2 c4 -20 -25 -34 -40 -19 -15 15 -1 44 19 40 10 -2 19 -11 21 -21z m85
11 c7 -21 -4 -38 -23 -38 -23 0 -34 16 -26 35 7 18 43 20 49 3z m82 -13 c0
-25 -40 -33 -49 -10 -9 24 2 37 27 33 14 -2 22 -10 22 -23z m80 0 c0 -13 -8
-21 -22 -23 -19 -3 -23 1 -23 23 0 22 4 26 23 23 14 -2 22 -10 22 -23z m85 0
c0 -18 -5 -25 -19 -25 -11 0 -23 5 -26 10 -11 18 3 40 25 40 15 0 20 -7 20
-25z m85 0 c0 -22 -31 -33 -47 -17 -17 17 -1 44 24 40 15 -2 23 -10 23 -23z
m590 0 c0 -17 -8 -20 -59 -23 -62 -3 -83 6 -72 33 5 13 18 15 68 13 55 -3 63
-5 63 -23z m360 0 c0 -19 -8 -20 -139 -23 -141 -3 -164 2 -153 33 6 13 26 15
149 13 135 -3 143 -4 143 -23z m118 13 c7 -21 -4 -38 -23 -38 -23 0 -34 16
-26 35 7 18 43 20 49 3z m82 -13 c0 -22 -31 -33 -47 -17 -17 17 -1 44 24 40
15 -2 23 -10 23 -23z m80 0 c0 -13 -8 -21 -22 -23 -19 -3 -23 1 -23 23 0 22 4
26 23 23 14 -2 22 -10 22 -23z m85 0 c0 -18 -5 -25 -19 -25 -11 0 -23 5 -26
10 -11 18 3 40 25 40 15 0 20 -7 20 -25z m83 13 c7 -21 -4 -38 -23 -38 -23 0
-34 16 -26 35 7 18 43 20 49 3z m82 -13 c0 -23 -34 -33 -45 -14 -13 20 1 40
24 37 13 -2 21 -10 21 -23z m-2370 -110 c0 -17 -8 -20 -59 -23 -62 -3 -83 6
-72 33 5 13 18 15 68 13 55 -3 63 -5 63 -23z m360 0 c0 -19 -8 -20 -139 -23
-141 -3 -164 2 -153 33 6 13 26 15 149 13 135 -3 143 -4 143 -23z m1120 0 c0
-17 -8 -20 -59 -23 -62 -3 -83 6 -72 33 5 13 18 15 68 13 55 -3 63 -5 63 -23z
m360 0 c0 -19 -8 -20 -139 -23 -141 -3 -164 2 -153 33 6 13 26 15 149 13 135
-3 143 -4 143 -23z m-1840 -110 c0 -17 -8 -20 -59 -23 -62 -3 -83 6 -72 33 5
13 18 15 68 13 55 -3 63 -5 63 -23z m360 0 c0 -19 -8 -20 -139 -23 -141 -3
-164 2 -153 33 6 13 26 15 149 13 135 -3 143 -4 143 -23z m113 -3 c3 -16 -2
-22 -17 -22 -24 0 -35 15 -27 36 9 23 40 13 44 -14z m85 16 c7 -21 -4 -38 -23
-38 -23 0 -34 16 -26 35 7 18 43 20 49 3z m82 -13 c0 -21 -31 -33 -46 -18 -5
5 -7 17 -3 27 9 24 49 17 49 -9z m80 0 c0 -13 -8 -21 -22 -23 -19 -3 -23 1
-23 23 0 22 4 26 23 23 14 -2 22 -10 22 -23z m85 0 c0 -18 -5 -25 -19 -25 -11
0 -23 5 -26 10 -11 18 3 40 25 40 15 0 20 -7 20 -25z m85 0 c0 -22 -31 -33
-47 -17 -17 17 -1 44 24 40 15 -2 23 -10 23 -23z m590 0 c0 -17 -8 -20 -59
-23 -62 -3 -83 6 -72 33 5 13 18 15 68 13 55 -3 63 -5 63 -23z m360 0 c0 -19
-8 -20 -139 -23 -141 -3 -164 2 -153 33 6 13 26 15 149 13 135 -3 143 -4 143
-23z m118 13 c7 -21 -4 -38 -23 -38 -23 0 -34 16 -26 35 7 18 43 20 49 3z m82
-13 c0 -22 -31 -33 -47 -17 -17 17 -1 44 24 40 15 -2 23 -10 23 -23z m80 0 c0
-13 -8 -21 -22 -23 -19 -3 -23 1 -23 23 0 22 4 26 23 23 14 -2 22 -10 22 -23z
m83 -3 c3 -16 -2 -22 -17 -22 -24 0 -35 15 -27 36 9 23 40 13 44 -14z m85 16
c7 -21 -4 -38 -23 -38 -23 0 -34 16 -26 35 7 18 43 20 49 3z m82 -13 c0 -23
-34 -33 -45 -14 -13 20 1 40 24 37 13 -2 21 -10 21 -23z m-2370 -110 c0 -17
-8 -20 -59 -23 -62 -3 -83 6 -72 33 5 13 18 15 68 13 55 -3 63 -5 63 -23z
m360 0 c0 -19 -8 -20 -139 -23 -141 -3 -164 2 -153 33 6 13 26 15 149 13 135
-3 143 -4 143 -23z m1120 0 c0 -17 -8 -20 -59 -23 -62 -3 -83 6 -72 33 5 13
18 15 68 13 55 -3 63 -5 63 -23z m360 0 c0 -19 -8 -20 -139 -23 -141 -3 -164
2 -153 33 6 13 26 15 149 13 135 -3 143 -4 143 -23z m-1840 -110 c0 -17 -8
-20 -59 -23 -62 -3 -83 6 -72 33 5 13 18 15 68 13 55 -3 63 -5 63 -23z m360 0
c0 -19 -8 -20 -139 -23 -141 -3 -164 2 -153 33 6 13 26 15 149 13 135 -3 143
-4 143 -23z m1120 0 c0 -17 -8 -20 -59 -23 -62 -3 -83 6 -72 33 5 13 18 15 68
13 55 -3 63 -5 63 -23z m360 0 c0 -19 -8 -20 -139 -23 -77 -1 -143 1 -148 6
-5 5 -6 16 -2 26 6 15 23 16 148 14 133 -3 141 -4 141 -23z m-917 -99 c-2 -13
-10 -21 -23 -21 -23 0 -33 34 -14 45 20 13 40 -1 37 -24z m80 0 c-2 -13 -10
-21 -23 -21 -23 0 -33 34 -14 45 20 13 40 -1 37 -24z m1318 -11 c-3 -9 -14
-15 -23 -13 -22 4 -30 38 -11 49 18 11 43 -15 34 -36z m82 11 c-2 -13 -10 -21
-23 -21 -23 0 -33 34 -14 45 20 13 40 -1 37 -24z m250 0 c-2 -13 -10 -21 -23
-21 -23 0 -33 34 -14 45 20 13 40 -1 37 -24z m-1893 5 c0 -8 -8 -19 -17 -25
-22 -13 -44 5 -34 29 7 20 51 16 51 -4z m80 -6 c0 -25 -40 -33 -49 -10 -9 24
2 37 27 33 14 -2 22 -10 22 -23z m249 16 c10 -16 -5 -41 -24 -41 -23 0 -34 16
-26 35 6 16 42 20 50 6z m84 -14 c2 -9 -4 -20 -12 -23 -21 -8 -46 13 -39 32 8
20 47 13 51 -9z m1067 -2 c0 -25 -40 -33 -49 -10 -9 24 2 37 27 33 14 -2 22
-10 22 -23z m249 16 c10 -16 -5 -41 -24 -41 -23 0 -34 16 -26 35 6 16 42 20
50 6z m81 -16 c0 -25 -40 -33 -49 -10 -9 24 2 37 27 33 14 -2 22 -10 22 -23z
m-2570 -10 c0 -18 -8 -20 -67 -23 -61 -3 -68 -1 -68 16 0 29 10 33 75 30 52
-3 60 -6 60 -23z m662 14 c6 -6 9 -18 6 -25 -4 -11 -36 -14 -148 -14 -112 0
-144 3 -148 14 -11 29 17 36 148 36 83 0 135 -4 142 -11z m818 -14 c0 -17 -8
-20 -59 -23 -62 -3 -83 6 -72 33 5 13 18 15 68 13 55 -3 63 -5 63 -23z m665
10 c24 -29 0 -35 -146 -35 -133 0 -144 1 -144 18 0 10 3 22 7 25 3 4 66 7 138
7 104 0 135 -3 145 -15z m-2145 -120 c0 -18 -8 -20 -67 -23 -61 -3 -68 -1 -68
16 0 29 10 33 75 30 52 -3 60 -6 60 -23z m662 14 c6 -6 9 -18 6 -25 -4 -11
-36 -14 -148 -14 -112 0 -144 3 -148 14 -11 29 17 36 148 36 83 0 135 -4 142
-11z m818 -14 c0 -17 -8 -20 -59 -23 -62 -3 -83 6 -72 33 5 13 18 15 68 13 55
-3 63 -5 63 -23z m665 10 c24 -29 0 -35 -146 -35 -133 0 -144 1 -144 18 0 10
3 22 7 25 3 4 66 7 138 7 104 0 135 -3 145 -15z m-1390 -101 c11 -12 11 -18
-2 -30 -18 -18 -48 -8 -48 16 0 16 11 27 31 29 4 1 12 -6 19 -15z m80 0 c11
-12 10 -18 -3 -32 -16 -15 -18 -15 -34 0 -13 14 -14 20 -3 32 7 9 16 16 20 16
4 0 13 -7 20 -16z m85 -14 c0 -16 -6 -26 -18 -28 -19 -4 -32 20 -23 44 9 25
41 13 41 -16z m80 0 c0 -16 -6 -26 -18 -28 -19 -4 -32 20 -23 44 9 25 41 13
41 -16z m85 14 c11 -12 10 -18 -3 -32 -16 -15 -18 -15 -34 0 -13 14 -14 20 -3
32 7 9 16 16 20 16 4 0 13 -7 20 -16z m74 10 c21 -8 21 -43 0 -51 -8 -3 -23 1
-31 10 -13 13 -14 19 -3 31 14 18 13 18 34 10z m1076 -10 c11 -12 10 -18 -3
-32 -16 -15 -18 -15 -34 0 -13 14 -14 20 -3 32 7 9 16 16 20 16 4 0 13 -7 20
-16z m85 -14 c0 -16 -6 -26 -18 -28 -19 -4 -32 20 -23 44 9 25 41 13 41 -16z
m80 0 c0 -16 -6 -26 -18 -28 -19 -4 -32 20 -23 44 9 25 41 13 41 -16z m85 14
c11 -12 11 -18 -2 -30 -16 -16 -48 -9 -48 10 0 13 20 36 31 36 4 0 12 -7 19
-16z m78 4 c7 -7 12 -17 12 -24 0 -19 -32 -26 -48 -10 -13 12 -13 18 -2 30 15
19 22 20 38 4z m87 -18 c0 -16 -6 -26 -18 -28 -19 -4 -32 20 -23 44 9 25 41
13 41 -16z m-2650 -5 c0 -18 -8 -20 -67 -23 -61 -3 -68 -1 -68 16 0 29 10 33
75 30 52 -3 60 -6 60 -23z m662 14 c6 -6 9 -18 6 -25 -4 -11 -36 -14 -148 -14
-145 0 -169 6 -145 35 16 19 269 22 287 4z m818 -14 c0 -17 -8 -20 -59 -23
-62 -3 -83 6 -72 33 5 13 18 15 68 13 55 -3 63 -5 63 -23z m665 10 c24 -29 0
-35 -146 -35 -133 0 -144 1 -144 18 0 10 3 22 7 25 3 4 66 7 138 7 104 0 135
-3 145 -15z m-2151 -104 c8 -5 11 -16 8 -25 -5 -12 -21 -16 -72 -16 -56 0 -65
2 -65 18 0 10 3 22 7 25 9 10 106 8 122 -2z m366 -16 c0 -19 -8 -20 -143 -23
-124 -2 -143 0 -149 14 -11 28 18 34 157 32 127 -3 135 -4 135 -23z m113 1 c4
-21 -14 -37 -35 -29 -14 5 -18 35 -6 47 12 12 38 1 41 -18z m83 8 c11 -14 10
-18 -6 -30 -16 -12 -21 -12 -33 0 -17 17 -9 46 11 46 8 0 21 -7 28 -16z m86 0
c3 -8 -2 -23 -11 -32 -14 -15 -18 -15 -31 -1 -9 9 -13 23 -9 32 8 21 43 22 51
1z m81 -8 c4 -21 -14 -37 -35 -29 -14 5 -18 35 -6 47 12 12 38 1 41 -18z m80
0 c4 -21 -14 -37 -35 -29 -14 5 -18 35 -6 47 12 12 38 1 41 -18z m86 7 c4 -9
0 -23 -9 -32 -13 -14 -17 -14 -31 1 -9 9 -14 24 -11 32 8 21 43 20 51 -1z
m580 -9 c9 -3 16 -15 16 -25 0 -17 -8 -19 -70 -19 -62 0 -70 2 -70 19 0 11 6
22 13 24 18 8 93 8 111 1z m360 0 c9 -3 16 -15 16 -25 0 -18 -9 -19 -144 -19
-146 0 -170 6 -146 35 10 12 40 15 135 15 68 0 130 -3 139 -6z m125 -7 c15
-19 -9 -50 -32 -41 -17 6 -23 35 -10 47 10 11 30 8 42 -6z m81 -3 c11 -12 10
-18 -3 -32 -16 -15 -18 -15 -34 0 -13 14 -14 20 -3 32 7 9 16 16 20 16 4 0 13
-7 20 -16z m88 -10 c3 -22 -21 -39 -39 -28 -11 6 -12 38 -2 48 13 13 38 1 41
-20z m80 2 c5 -24 -10 -38 -31 -30 -17 6 -23 35 -10 48 12 12 38 1 41 -18z
m82 8 c11 -12 10 -18 -3 -32 -16 -15 -18 -15 -33 0 -19 18 -12 48 9 48 8 0 20
-7 27 -16z m87 0 c3 -8 -2 -23 -11 -32 -15 -15 -17 -15 -33 0 -13 14 -14 20
-3 32 16 20 39 20 47 0z m-2378 -83 c8 -5 11 -16 8 -25 -5 -12 -21 -16 -72
-16 -56 0 -65 2 -65 18 0 10 3 22 7 25 9 10 106 8 122 -2z m360 0 c8 -5 11
-16 8 -25 -5 -14 -27 -16 -147 -16 -120 0 -142 2 -147 16 -10 27 18 34 147 34
69 0 131 -4 139 -9z m1115 -17 c9 -3 16 -15 16 -25 0 -17 -8 -19 -70 -19 -62
0 -70 2 -70 19 0 11 6 22 13 24 18 8 93 8 111 1z m360 0 c9 -3 16 -15 16 -25
0 -18 -9 -19 -144 -19 -148 0 -179 8 -141 37 19 13 237 19 269 7z m-1835 -93
c8 -5 11 -16 8 -25 -5 -12 -21 -16 -72 -16 -56 0 -65 2 -65 18 0 10 3 22 7 25
9 10 106 8 122 -2z m355 3 c9 -3 16 -15 16 -25 0 -18 -9 -19 -145 -19 -124 0
-147 2 -152 16 -3 9 0 20 8 25 16 10 249 12 273 3z m124 -18 c4 -21 -14 -37
-35 -29 -14 5 -18 35 -6 47 12 12 38 1 41 -18z m82 8 c11 -12 10 -18 -3 -32
-16 -15 -18 -15 -33 0 -19 18 -12 48 9 48 8 0 20 -7 27 -16z m87 0 c3 -8 -2
-23 -11 -32 -15 -15 -17 -15 -33 0 -13 14 -14 20 -3 32 16 20 39 20 47 0z m81
-8 c4 -21 -14 -37 -35 -29 -14 5 -18 35 -6 47 12 12 38 1 41 -18z m80 0 c4
-21 -14 -37 -35 -29 -14 5 -18 35 -6 47 12 12 38 1 41 -18z m82 8 c11 -12 10
-18 -3 -32 -16 -15 -18 -15 -33 0 -19 18 -12 48 9 48 8 0 20 -7 27 -16z m1070
-20 c11 -12 11 -18 -2 -30 -18 -18 -48 -8 -48 15 0 33 28 42 50 15z m80 0 c11
-12 10 -18 -3 -32 -16 -15 -18 -15 -34 0 -13 14 -14 20 -3 32 7 9 16 16 20 16
4 0 13 -7 20 -16z m85 -14 c0 -16 -6 -26 -18 -28 -19 -4 -32 20 -23 44 9 25
41 13 41 -16z m80 0 c0 -16 -6 -26 -18 -28 -19 -4 -32 20 -23 44 9 25 41 13
41 -16z m85 14 c11 -12 10 -18 -3 -31 -13 -13 -19 -14 -31 -3 -19 15 -21 36
-3 43 20 9 24 8 37 -9z m74 10 c20 -8 20 -28 0 -44 -12 -11 -18 -10 -31 3 -13
13 -14 19 -3 31 14 18 13 18 34 10z m-874 -24 c0 -18 -7 -20 -70 -20 -63 0
-70 2 -70 20 0 18 7 20 70 20 63 0 70 -2 70 -20z m360 0 c0 -19 -7 -20 -144
-20 -86 0 -147 4 -151 10 -15 24 13 30 151 30 137 0 144 -1 144 -20z m-1851
-69 c8 -5 11 -16 8 -25 -5 -12 -21 -16 -72 -16 -57 0 -65 2 -65 19 0 11 6 22
13 24 21 9 101 7 116 -2z m355 3 c9 -3 16 -15 16 -25 0 -18 -9 -19 -145 -19
-124 0 -147 2 -152 16 -3 9 0 20 8 25 16 10 249 12 273 3z m1136 -44 c0 -18
-7 -20 -70 -20 -63 0 -70 2 -70 20 0 18 7 20 70 20 63 0 70 -2 70 -20z m360 0
c0 -19 -7 -20 -144 -20 -86 0 -147 4 -151 10 -15 24 13 30 151 30 137 0 144
-1 144 -20z m-1851 -69 c8 -5 11 -16 8 -25 -5 -12 -21 -16 -72 -16 -57 0 -65
2 -65 19 0 11 6 22 13 24 21 9 101 7 116 -2z m355 3 c9 -3 16 -15 16 -25 0
-18 -9 -19 -145 -19 -124 0 -147 2 -152 16 -3 9 0 20 8 25 16 10 249 12 273 3z
m1136 -44 c0 -18 -7 -20 -70 -20 -63 0 -70 2 -70 20 0 18 7 20 70 20 63 0 70
-2 70 -20z m360 0 c0 -19 -7 -20 -144 -20 -86 0 -147 4 -151 10 -15 24 13 30
151 30 137 0 144 -1 144 -20z m-1087 -62 c7 -21 -4 -38 -23 -38 -23 0 -34 16
-26 35 7 18 43 20 49 3z m82 -13 c0 -21 -31 -33 -46 -18 -5 5 -7 17 -3 27 9
24 49 17 49 -9z m80 0 c0 -13 -8 -21 -22 -23 -19 -3 -23 1 -23 23 0 22 4 26
23 23 14 -2 22 -10 22 -23z m85 0 c0 -18 -5 -25 -19 -25 -11 0 -23 5 -26 10
-11 18 3 40 25 40 15 0 20 -7 20 -25z m85 0 c0 -22 -31 -33 -47 -17 -17 17 -1
44 24 40 15 -2 23 -10 23 -23z m80 0 c0 -23 -34 -33 -45 -14 -13 20 1 40 24
37 13 -2 21 -10 21 -23z m-1176 6 c8 -5 11 -16 8 -25 -5 -12 -21 -16 -72 -16
-57 0 -65 2 -65 19 0 11 6 22 13 24 21 9 101 7 116 -2z m655 3 c9 -3 16 -15
16 -25 0 -18 -9 -19 -144 -19 -148 0 -179 8 -141 37 19 13 237 19 269 7z
m1591 -29 c0 -21 -31 -33 -46 -18 -5 5 -7 17 -3 27 9 24 49 17 49 -9z m80 0
c0 -13 -8 -21 -22 -23 -17 -3 -23 2 -23 16 0 10 3 22 7 26 13 13 38 1 38 -19z
m83 -3 c3 -18 -1 -22 -22 -22 -19 0 -26 5 -26 18 0 39 43 43 48 4z m86 12 c8
-21 -1 -34 -24 -34 -22 0 -34 15 -26 35 7 20 42 19 50 -1z m81 -9 c0 -21 -31
-33 -46 -18 -5 5 -7 17 -3 27 9 24 49 17 49 -9z m83 -3 c3 -18 -1 -22 -22 -22
-19 0 -26 5 -26 18 0 39 43 43 48 4z m-1168 -11 c0 -23 -19 -31 -70 -31 -51 0
-70 8 -70 31 0 17 8 19 70 19 62 0 70 -2 70 -19z m666 7 c16 -26 -29 -38 -147
-38 -131 0 -149 4 -149 31 0 18 9 19 144 19 99 0 147 -4 152 -12z m-2146 -98
c0 -18 -7 -20 -70 -20 -63 0 -70 2 -70 20 0 18 7 20 70 20 63 0 70 -2 70 -20z
m660 0 c0 -19 -7 -20 -144 -20 -138 0 -166 6 -151 30 4 6 65 10 151 10 137 0
144 -1 144 -20z m820 -19 c0 -23 -19 -31 -70 -31 -51 0 -70 8 -70 31 0 17 8
19 70 19 62 0 70 -2 70 -19z m665 9 c4 -6 1 -17 -5 -25 -10 -12 -40 -15 -135
-15 -137 0 -155 4 -155 31 0 18 9 19 144 19 90 0 147 -4 151 -10z m-1392 -82
c7 -21 -4 -38 -23 -38 -23 0 -34 16 -26 35 7 18 43 20 49 3z m82 -13 c0 -25
-40 -33 -49 -10 -9 24 2 37 27 33 14 -2 22 -10 22 -23z m80 0 c0 -30 -39 -27
-43 3 -3 20 0 23 20 20 15 -2 23 -10 23 -23z m85 5 c0 -24 -26 -38 -42 -22
-16 16 -2 42 22 42 13 0 20 -7 20 -20z m84 11 c10 -16 -5 -41 -24 -41 -23 0
-34 16 -26 35 6 16 42 20 50 6z m81 -16 c0 -23 -34 -33 -45 -14 -13 20 1 40
24 37 13 -2 21 -10 21 -23z m-1165 -5 c0 -18 -7 -20 -70 -20 -63 0 -70 2 -70
20 0 18 7 20 70 20 63 0 70 -2 70 -20z m660 0 c0 -19 -7 -20 -144 -20 -86 0
-147 4 -151 10 -15 24 13 30 151 30 137 0 144 -1 144 -20z m1575 -15 c0 -22
-31 -33 -47 -17 -17 17 -1 44 24 40 15 -2 23 -10 23 -23z m80 0 c0 -13 -8 -21
-22 -23 -19 -3 -23 1 -23 23 0 22 4 26 23 23 14 -2 22 -10 22 -23z m85 5 c0
-24 -26 -38 -42 -22 -16 16 -2 42 22 42 13 0 20 -7 20 -20z m83 8 c7 -21 -4
-38 -23 -38 -23 0 -34 16 -26 35 7 18 43 20 49 3z m82 -13 c0 -23 -34 -33 -45
-14 -13 20 1 40 24 37 13 -2 21 -10 21 -23z m80 0 c0 -30 -39 -27 -43 3 -3 20
0 23 20 20 15 -2 23 -10 23 -23z m-1165 -4 c0 -23 -19 -31 -70 -31 -51 0 -70
8 -70 31 0 17 8 19 70 19 62 0 70 -2 70 -19z m665 9 c4 -6 1 -17 -5 -25 -10
-12 -40 -15 -135 -15 -137 0 -155 4 -155 31 0 18 9 19 144 19 90 0 147 -4 151
-10z m-1677 -124 c-2 -13 -10 -21 -23 -21 -23 0 -33 34 -14 45 20 13 40 -1 37
-24z m82 19 c10 -12 10 -18 0 -30 -16 -19 -39 -19 -46 0 -6 15 11 45 26 45 4
0 13 -7 20 -15z m80 0 c15 -18 6 -45 -13 -45 -8 0 -20 7 -27 15 -10 12 -10 18
0 30 16 19 24 19 40 0z m88 -19 c-2 -13 -10 -21 -23 -21 -23 0 -33 34 -14 45
20 13 40 -1 37 -24z m80 0 c-2 -13 -10 -21 -23 -21 -23 0 -33 34 -14 45 20 13
40 -1 37 -24z m82 19 c10 -12 10 -18 0 -30 -16 -19 -39 -19 -46 0 -6 15 11 45
26 45 4 0 13 -7 20 -15z m-883 -11 c9 -24 -16 -34 -77 -32 -48 3 -55 6 -58 26
-3 21 0 22 63 22 51 0 67 -4 72 -16z m360 0 c10 -27 -18 -34 -147 -34 -129 0
-157 7 -147 34 5 14 27 16 147 16 120 0 142 -2 147 -16z m-360 -110 c9 -24
-16 -34 -77 -32 -48 3 -55 6 -58 26 -3 21 0 22 63 22 51 0 67 -4 72 -16z m358
-9 c0 -19 -8 -20 -135 -23 -139 -2 -168 4 -157 32 6 14 25 16 149 14 135 -3
143 -4 143 -23z m113 -109 c-2 -13 -10 -21 -23 -21 -23 0 -33 34 -14 45 20 13
40 -1 37 -24z m92 6 c0 -13 -23 -32 -37 -32 -19 0 -27 28 -13 45 9 11 17 12
31 4 10 -5 19 -13 19 -17z m158 -6 c-2 -13 -10 -21 -23 -21 -23 0 -33 34 -14
45 20 13 40 -1 37 -24z m80 0 c-2 -13 -10 -21 -23 -21 -23 0 -33 34 -14 45 20
13 40 -1 37 -24z m-803 -1 c0 -18 -7 -20 -65 -20 -60 0 -65 2 -68 23 -3 22 -1
23 65 20 60 -3 68 -5 68 -23z m360 0 c0 -19 -8 -20 -135 -23 -139 -2 -168 4
-157 32 6 14 25 16 149 14 135 -3 143 -4 143 -23z m280 0 c0 -25 -40 -33 -49
-10 -9 24 2 37 27 33 14 -2 22 -10 22 -23z m249 16 c10 -16 -5 -41 -24 -41
-23 0 -34 16 -26 35 6 16 42 20 50 6z m-889 -126 c0 -18 -7 -20 -65 -20 -60 0
-65 2 -68 23 -3 22 -1 23 65 20 60 -3 68 -5 68 -23z m360 0 c0 -19 -8 -20
-139 -23 -141 -3 -164 2 -153 33 6 13 26 15 149 13 135 -3 143 -4 143 -23z
m-360 -110 c0 -18 -7 -20 -65 -20 -60 0 -65 2 -68 23 -3 22 -1 23 65 20 60 -3
68 -5 68 -23z m360 0 c0 -19 -8 -20 -139 -23 -141 -3 -164 2 -153 33 6 13 26
15 149 13 135 -3 143 -4 143 -23z m395 -81 c11 -12 11 -18 -2 -30 -18 -18 -48
-8 -48 16 0 16 11 27 31 29 4 1 12 -6 19 -15z m80 0 c11 -12 10 -18 -3 -32
-16 -15 -18 -15 -34 0 -13 14 -14 20 -3 32 7 9 16 16 20 16 4 0 13 -7 20 -16z
m85 -14 c0 -16 -6 -26 -18 -28 -19 -4 -32 20 -23 44 9 25 41 13 41 -16z m80 0
c0 -16 -6 -26 -18 -28 -19 -4 -32 20 -23 44 9 25 41 13 41 -16z m85 14 c11
-12 10 -18 -3 -32 -16 -15 -18 -15 -34 0 -13 14 -14 20 -3 32 7 9 16 16 20 16
4 0 13 -7 20 -16z m74 10 c21 -8 20 -40 -1 -48 -9 -4 -23 0 -31 8 -13 12 -13
18 -2 30 14 18 13 18 34 10z m-1159 -39 c0 -18 -7 -20 -65 -20 -60 0 -65 2
-68 23 -3 22 -1 23 65 20 60 -3 68 -5 68 -23z m668 11 c11 -29 -17 -36 -148
-36 -131 0 -159 7 -148 36 4 11 36 14 148 14 112 0 144 -3 148 -14z m-668
-121 c0 -17 -8 -20 -59 -23 -62 -3 -83 6 -72 33 5 13 18 15 68 13 55 -3 63 -5
63 -23z m668 11 c11 -29 -17 -36 -148 -36 -131 0 -159 7 -148 36 4 11 36 14
148 14 112 0 144 -3 148 -14z m88 -102 c11 -14 10 -18 -6 -30 -16 -12 -21 -12
-33 0 -17 17 -9 46 11 46 8 0 21 -7 28 -16z m84 -9 c0 -21 -31 -33 -46 -18 -5
5 -7 17 -3 27 9 24 49 17 49 -9z m83 1 c4 -21 -14 -37 -35 -29 -14 5 -18 35
-6 47 12 12 38 1 41 -18z m80 0 c4 -21 -14 -37 -35 -29 -14 5 -18 35 -6 47 12
12 38 1 41 -18z m86 8 c8 -21 -1 -34 -24 -34 -22 0 -34 15 -26 35 7 20 42 19
50 -1z m83 0 c3 -8 -1 -22 -9 -30 -13 -14 -17 -14 -32 1 -13 13 -14 20 -5 31
15 19 38 18 46 -2z m-1172 -19 c0 -17 -8 -20 -59 -23 -62 -3 -83 6 -72 33 5
13 18 15 68 13 55 -3 63 -5 63 -23z m668 11 c11 -29 -17 -36 -148 -36 -131 0
-159 7 -148 36 4 11 36 14 148 14 112 0 144 -3 148 -14z"/>
<path d="M3956 4921 c-7 -10 17 -158 50 -310 48 -225 130 -464 219 -641 60
-121 155 -261 174 -258 29 6 22 36 -25 105 -147 214 -295 622 -349 965 -23
149 -23 148 -45 148 -10 0 -21 -4 -24 -9z"/>
</g>
</svg>
