<?xml version="1.0" standalone="no"?>
<!DOCTYPE svg PUBLIC "-//W3C//DTD SVG 20010904//EN"
 "http://www.w3.org/TR/2001/REC-SVG-20010904/DTD/svg10.dtd">
<svg version="1.0" xmlns="http://www.w3.org/2000/svg"
 width="1424.000000pt" height="722.000000pt" viewBox="0 0 1424.000000 722.000000"
 preserveAspectRatio="xMidYMid meet">

<g transform="translate(0.000000,722.000000) scale(0.100000,-0.100000)"
fill="#000000" stroke="none">
<path d="M793 5867 c-62 -94 -100 -196 -130 -350 -14 -69 -17 -205 -23 -847
-6 -652 -10 -776 -24 -840 -56 -259 -155 -395 -321 -441 l-60 -16 -3 -198 c-3
-210 -2 -215 44 -215 39 0 141 -60 188 -110 83 -89 141 -242 165 -435 7 -57
11 -327 11 -736 0 -684 5 -786 45 -947 26 -101 86 -235 129 -287 l25 -30 1 43
c0 61 28 187 56 257 42 102 105 197 181 272 l73 72 0 610 c0 604 -6 740 -36
890 -50 243 -166 444 -323 561 l-70 52 57 42 c136 101 236 244 295 424 69 211
70 222 75 964 l3 667 -27 17 c-47 31 -151 162 -193 243 -49 95 -81 206 -89
318 l-7 84 -42 -64z"/>
<path d="M6440 5867 c0 -175 -96 -393 -232 -529 l-68 -69 0 -647 c0 -383 4
-682 10 -732 39 -318 175 -577 373 -708 20 -13 37 -28 37 -31 0 -4 -14 -15
-31 -25 -55 -33 -158 -137 -208 -211 -85 -128 -146 -307 -170 -500 -7 -57 -11
-327 -11 -732 0 -632 0 -642 20 -653 37 -20 148 -160 189 -238 50 -97 80 -203
88 -309 5 -70 8 -81 20 -71 29 24 93 146 123 235 56 170 60 223 60 925 0 376
4 689 11 765 29 343 143 542 342 598 l57 16 0 203 0 203 -37 6 c-92 15 -202
97 -256 190 -36 61 -73 176 -93 288 -14 80 -18 209 -24 854 -5 488 -11 777
-18 807 -41 175 -80 272 -146 363 l-36 50 0 -48z"/>
<path d="M13862 3377 c-123 -161 -234 -305 -247 -321 l-22 -28 -233 303 c-128
167 -239 311 -247 319 -11 12 -13 -64 -13 -478 0 -484 0 -492 20 -492 19 0 20
8 22 427 l3 428 224 -293 c217 -283 225 -293 240 -273 9 12 108 142 221 289
l205 268 3 -423 2 -423 25 0 25 0 0 495 c0 272 -1 495 -2 494 -2 0 -103 -132
-226 -292z"/>
<path d="M11561 3624 c-131 -35 -243 -130 -307 -260 l-39 -78 0 -131 0 -131
38 -77 c181 -365 700 -368 872 -4 77 162 66 337 -31 482 -113 171 -333 253
-533 199z m309 -70 c308 -146 350 -550 77 -750 -215 -159 -526 -85 -646 154
-120 237 -2 524 252 614 40 14 74 18 152 15 87 -2 108 -6 165 -33z"/>
<path d="M7880 3525 l0 -105 110 0 110 0 0 -370 0 -370 120 0 120 0 0 370 0
370 110 0 110 0 0 105 0 105 -340 0 -340 0 0 -105z"/>
<path d="M8754 3418 c57 -117 122 -250 145 -295 l41 -83 0 -180 0 -180 120 0
120 0 0 178 0 179 111 224 c61 123 126 257 145 297 l33 72 -132 0 -132 0 -64
-163 c-35 -89 -67 -166 -71 -170 -4 -4 -40 69 -81 162 l-74 171 -132 0 -132 0
103 -212z"/>
<path d="M9630 3155 l0 -475 120 0 120 0 0 139 0 138 110 6 c165 9 247 53 301
164 21 42 24 62 24 169 0 114 -2 123 -30 179 -19 37 -46 72 -73 92 -72 55
-119 63 -359 63 l-213 0 0 -475z m411 239 c21 -22 24 -35 24 -101 0 -70 -2
-76 -28 -99 -24 -20 -39 -24 -98 -24 l-69 0 0 125 0 125 73 0 c66 0 76 -3 98
-26z"/>
<path d="M10510 3155 l0 -475 295 0 295 0 0 105 0 105 -175 0 -175 0 0 85 0
85 140 0 140 0 0 100 0 99 -137 3 -138 3 -3 78 -3 77 171 0 170 0 0 105 0 105
-290 0 -290 0 0 -475z"/>
<path d="M12350 3155 c0 -468 0 -475 20 -475 19 0 20 7 20 225 l0 225 93 0 92
-1 104 -224 c92 -199 107 -225 127 -225 29 0 35 -16 -90 250 -53 113 -92 206
-87 208 6 2 34 15 63 30 98 50 144 154 118 271 -10 47 -21 64 -65 108 -70 68
-120 83 -277 83 l-118 0 0 -475z m266 420 c57 -17 119 -70 139 -120 28 -66 13
-153 -36 -210 -44 -50 -101 -68 -222 -69 l-102 -1 -3 208 -2 207 88 0 c49 0
110 -7 138 -15z"/>
</g>
</svg>
